<svg width="1360" height="716" viewBox="0 0 1360 716" fill="none" xmlns="http://www.w3.org/2000/svg">
<path fill-rule="evenodd" clip-rule="evenodd" d="M211.586 80.04C205.666 80.04 200.866 79.12 197.186 77.28C193.506 75.36 190.906 72.52 189.386 68.76C187.946 65 187.466 60.4 187.946 54.96C188.026 53.6 188.546 52.92 189.506 52.92H208.346C209.386 52.92 209.826 53.52 209.666 54.72C209.586 56.4 209.706 57.92 210.026 59.28C210.346 60.56 210.946 61.2 211.826 61.2C212.786 61.2 213.426 60.96 213.746 60.48C214.146 59.92 214.346 59 214.346 57.72C214.346 57.08 214.226 56.44 213.986 55.8C213.746 55.08 213.386 54.4 212.906 53.76C212.426 53.04 211.826 52.44 211.106 51.96L200.186 43.8C197.306 41.56 194.906 39.36 192.986 37.2C191.066 35.04 189.666 32.68 188.786 30.12C187.906 27.56 187.466 24.56 187.466 21.12C187.546 14.24 189.466 9 193.226 5.39999C197.066 1.8 202.986 0 210.986 0C216.906 0 221.786 0.92 225.626 2.76C229.466 4.6 232.226 7.32 233.906 10.92C235.586 14.52 236.226 18.96 235.826 24.24C235.666 25.76 235.066 26.52 234.026 26.52H214.946C214.466 26.52 214.066 26.32 213.746 25.92C213.506 25.52 213.426 24.96 213.506 24.24C213.666 23.2 213.666 22.04 213.506 20.76C213.426 19.48 212.946 18.84 212.066 18.84C211.426 18.84 210.906 19.04 210.506 19.44C210.106 19.84 209.906 20.6 209.906 21.72C209.986 22.6 210.186 23.4 210.506 24.12C210.906 24.76 211.386 25.36 211.946 25.92C212.506 26.4 213.106 26.84 213.746 27.24L224.426 35.28C227.626 37.6 230.106 39.84 231.866 42C233.706 44.08 234.986 46.36 235.706 48.84C236.506 51.32 236.866 54.4 236.786 58.08C236.706 65.28 234.706 70.76 230.786 74.52C226.866 78.2 220.466 80.04 211.586 80.04ZM0 77.52C0 78.72 0.6 79.32 1.8 79.32H41.16C42.2 79.32 42.72 78.72 42.72 77.52V61.44C42.72 60.24 42.16 59.64 41.04 59.64H22.44V2.52C22.44 1.32 21.88 0.719998 20.76 0.719998H1.8C0.6 0.719998 0 1.32 0 2.52V77.52ZM46.7578 77.52C46.7578 78.72 47.2778 79.32 48.3178 79.32H90.4378C91.4778 79.32 91.9978 78.72 91.9978 77.52V61.44C91.9978 60.24 91.4778 59.64 90.4378 59.64H69.1978V49.2H88.3978C89.4378 49.2 89.9578 48.6 89.9578 47.4V32.4C89.9578 31.2 89.4378 30.6 88.3978 30.6H69.1978V20.4H90.4378C91.4778 20.4 91.9978 19.8 91.9978 18.6V2.52C91.9978 1.32 91.4778 0.719998 90.4378 0.719998H48.3178C47.2778 0.719998 46.7578 1.32 46.7578 2.52V77.52ZM111.537 79.32C110.497 79.32 109.977 78.72 109.977 77.52V20.4H97.4972C96.4572 20.4 95.9372 19.8 95.9372 18.6V2.52C95.9372 1.32 96.4572 0.719998 97.4972 0.719998H144.657C145.697 0.719998 146.217 1.32 146.217 2.52V18.6C146.217 19.8 145.697 20.4 144.657 20.4H132.417V77.52C132.417 78.72 131.897 79.32 130.857 79.32H111.537ZM151.043 41.28C150.803 42.56 151.283 43.2 152.483 43.2H168.803C169.923 43.2 170.643 42.68 170.963 41.64L182.723 2.88C182.883 2.24 182.803 1.72 182.483 1.32C182.243 0.919998 181.803 0.719998 181.163 0.719998H158.963C157.843 0.719998 157.203 1.28 157.043 2.4L151.043 41.28ZM256.515 78.84C256.835 79.16 257.275 79.32 257.835 79.32H276.675C277.715 79.32 278.235 78.72 278.235 77.52V62.64C278.395 56.8 278.275 51.92 277.875 48C277.555 44 277.235 40.52 276.915 37.56H277.155C277.955 40.2 278.795 42.88 279.675 45.6C280.555 48.24 281.515 50.84 282.555 53.4L289.875 70.32C290.275 71.12 290.715 71.52 291.195 71.52H291.795C292.355 71.52 292.835 71.12 293.235 70.32L300.555 53.4C301.595 50.84 302.555 48.24 303.435 45.6C304.315 42.88 305.115 40.2 305.835 37.56H306.075C305.835 40.52 305.555 44 305.235 48C304.915 51.92 304.795 56.8 304.875 62.64V77.52C304.875 78.72 305.395 79.32 306.435 79.32H325.275C325.835 79.32 326.275 79.16 326.595 78.84C326.915 78.44 327.075 78.04 327.075 77.64L325.995 2.52C325.995 1.32 325.475 0.719998 324.435 0.719998H303.075C302.035 0.719998 301.435 1.16 301.275 2.04L291.555 33.84L281.835 2.04C281.515 1.16 280.875 0.719998 279.915 0.719998H258.675C257.635 0.719998 257.115 1.32 257.115 2.52L256.035 77.64C256.035 78.04 256.195 78.44 256.515 78.84ZM329.587 77.4L346.387 2.16C346.627 1.2 347.227 0.719998 348.187 0.719998H372.547C373.507 0.719998 374.147 1.2 374.467 2.16L391.027 77.28C391.187 77.84 391.147 78.32 390.907 78.72C390.747 79.12 390.387 79.32 389.827 79.32H368.347C367.387 79.32 366.827 78.84 366.667 77.88L365.392 66.48H354.984L353.587 77.76C353.507 78.8 352.907 79.32 351.787 79.32H330.907C329.707 79.32 329.267 78.68 329.587 77.4ZM362.107 37.08L363.461 49.2H357.125L358.627 37.08C358.947 34.36 359.227 31.64 359.467 28.92C359.707 26.2 359.987 23.52 360.307 20.88H360.547C360.867 23.52 361.107 26.24 361.267 29.04C361.507 31.76 361.787 34.44 362.107 37.08ZM394.453 77.52C394.453 78.72 394.973 79.32 396.013 79.32H415.333C416.373 79.32 416.893 78.72 416.893 77.52V57.36L419.653 52.44L426.373 78.12C426.613 78.92 427.213 79.32 428.173 79.32H450.973C451.613 79.32 452.053 79.12 452.293 78.72C452.533 78.24 452.493 77.68 452.173 77.04L436.213 34.56L449.413 3C449.653 2.36 449.693 1.84 449.533 1.44C449.453 0.959997 449.093 0.719998 448.453 0.719998H426.973C426.093 0.719998 425.533 1.08 425.293 1.8L422.053 10.32C420.293 14.48 419.013 18.32 418.213 21.84C417.493 25.36 416.853 28.28 416.293 30.6H415.933C416.173 29 416.333 26.92 416.413 24.36C416.573 21.72 416.693 19.08 416.773 16.44C416.853 13.8 416.893 11.72 416.893 10.2V2.52C416.893 1.32 416.373 0.719998 415.333 0.719998H396.013C394.973 0.719998 394.453 1.32 394.453 2.52V77.52ZM457.068 79.32C456.028 79.32 455.508 78.72 455.508 77.52V2.52C455.508 1.32 456.028 0.719998 457.068 0.719998H499.188C500.228 0.719998 500.748 1.32 500.748 2.52V18.6C500.748 19.8 500.228 20.4 499.188 20.4H477.948V30.6H497.148C498.188 30.6 498.708 31.2 498.708 32.4V47.4C498.708 48.6 498.188 49.2 497.148 49.2H477.948V59.64H499.188C500.228 59.64 500.748 60.24 500.748 61.44V77.52C500.748 78.72 500.228 79.32 499.188 79.32H457.068ZM536.964 77.52C536.964 78.72 537.484 79.32 538.524 79.32H557.844C558.884 79.32 559.404 78.72 559.404 77.52V52.08L577.764 3C578.004 2.36 578.004 1.84 577.764 1.44C577.604 0.959997 577.204 0.719998 576.564 0.719998H555.324C554.364 0.719998 553.844 1.16 553.764 2.04L550.644 18.6L549.444 25.56C549.124 27.88 548.764 30.24 548.364 32.64H548.124C547.804 30.24 547.444 27.88 547.044 25.56C546.724 23.16 546.284 20.8 545.724 18.48L542.724 2.04C542.644 1.16 542.084 0.719998 541.044 0.719998H519.684C519.124 0.719998 518.724 0.959997 518.484 1.44C518.244 1.84 518.244 2.36 518.484 3L536.964 52.08V77.52ZM604.391 80.04C595.191 80.04 588.191 77.48 583.391 72.36C578.591 67.16 576.191 59.64 576.191 49.8V30.36C576.191 20.44 578.591 12.92 583.391 7.8C588.191 2.6 595.191 0 604.391 0C613.751 0 620.791 2.6 625.511 7.8C630.311 12.92 632.711 20.44 632.711 30.36V49.8C632.711 59.64 630.311 67.16 625.511 72.36C620.791 77.48 613.751 80.04 604.391 80.04ZM604.391 60.12C606.711 60.12 608.271 59.36 609.071 57.84C609.871 56.24 610.271 53.36 610.271 49.2V30.96C610.271 26.72 609.871 23.84 609.071 22.32C608.271 20.72 606.711 19.92 604.391 19.92C602.231 19.92 600.711 20.72 599.831 22.32C599.031 23.84 598.631 26.72 598.631 30.96V49.2C598.631 53.36 599.031 56.24 599.831 57.84C600.711 59.36 602.231 60.12 604.391 60.12ZM644.809 72.72C649.529 77.6 656.369 80.04 665.329 80.04C674.449 80.04 681.329 77.6 685.969 72.72C690.609 67.76 692.929 60.28 692.929 50.28V2.52C692.929 1.32 692.409 0.719998 691.369 0.719998H671.929C670.969 0.719998 670.489 1.32 670.489 2.52V49.56C670.489 53.96 670.089 56.84 669.289 58.2C668.489 59.48 667.209 60.12 665.449 60.12C663.609 60.12 662.289 59.48 661.489 58.2C660.689 56.84 660.289 53.96 660.289 49.56V2.52C660.289 2.04 660.169 1.64 659.929 1.32C659.689 0.919998 659.329 0.719998 658.849 0.719998H639.409C638.369 0.719998 637.849 1.32 637.849 2.52V50.28C637.849 60.28 640.169 67.76 644.809 72.72ZM715.349 79.32C714.309 79.32 713.789 78.72 713.789 77.52V2.52C713.789 1.32 714.309 0.719998 715.349 0.719998H757.469C758.509 0.719998 759.029 1.32 759.029 2.52V18.6C759.029 19.8 758.509 20.4 757.469 20.4H736.229V31.56H754.109C755.229 31.56 755.789 32.2 755.789 33.48V49.2C755.789 50.32 755.229 50.88 754.109 50.88H736.229V77.52C736.229 78.72 735.749 79.32 734.789 79.32H715.349ZM764.297 77.52C764.297 78.72 764.817 79.32 765.857 79.32H807.977C809.017 79.32 809.537 78.72 809.537 77.52V61.44C809.537 60.24 809.017 59.64 807.977 59.64H786.737V49.2H805.937C806.977 49.2 807.497 48.6 807.497 47.4V32.4C807.497 31.2 806.977 30.6 805.937 30.6H786.737V20.4H807.977C809.017 20.4 809.537 19.8 809.537 18.6V2.52C809.537 1.32 809.017 0.719998 807.977 0.719998H765.857C764.817 0.719998 764.297 1.32 764.297 2.52V77.52ZM816.716 79.32C815.676 79.32 815.156 78.72 815.156 77.52V2.52C815.156 1.32 815.676 0.719998 816.716 0.719998H858.836C859.876 0.719998 860.396 1.32 860.396 2.52V18.6C860.396 19.8 859.876 20.4 858.836 20.4H837.596V30.6H856.796C857.836 30.6 858.356 31.2 858.356 32.4V47.4C858.356 48.6 857.836 49.2 856.796 49.2H837.596V59.64H858.836C859.876 59.64 860.396 60.24 860.396 61.44V77.52C860.396 78.72 859.876 79.32 858.836 79.32H816.716ZM866.016 77.52C866.016 78.72 866.616 79.32 867.816 79.32H907.176C908.216 79.32 908.736 78.72 908.736 77.52V61.44C908.736 60.24 908.176 59.64 907.056 59.64H888.456V2.52C888.456 1.32 887.896 0.719998 886.776 0.719998H867.816C866.616 0.719998 866.016 1.32 866.016 2.52V77.52ZM8.49243 715.32C2.83081 715.32 0 710.74 0 701.58V129.061C0 119.9 2.83081 115.32 8.49243 115.32H97.946C103.23 115.32 105.872 119.9 105.872 129.061V340.664H155.694V129.061C155.694 119.9 158.525 115.32 164.187 115.32H253.64C258.925 115.32 261.567 119.9 261.567 129.061V701.58C261.567 710.74 258.925 715.32 253.64 715.32H164.187C158.525 715.32 155.694 710.74 155.694 701.58V490.893H105.872V701.58C105.872 710.74 103.23 715.32 97.946 715.32H8.49243ZM284.594 715.32C278.932 715.32 276.856 710.435 278.366 700.664L357.628 126.313C358.761 118.984 361.592 115.32 366.121 115.32H481.052C485.581 115.32 488.6 118.984 490.11 126.313L568.241 699.748C568.995 704.023 568.807 707.687 567.674 710.74C566.919 713.794 565.221 715.32 562.579 715.32H461.236C456.707 715.32 454.065 711.656 453.31 704.328L447.298 617.305H398.192L391.598 703.412C391.221 711.351 388.39 715.32 383.106 715.32H284.594ZM431.796 392.878L438.187 485.397H408.292L415.377 392.878C416.887 372.114 418.208 351.351 419.34 330.587C420.472 309.824 421.793 289.366 423.303 269.213H424.436C425.945 289.366 427.078 310.129 427.832 331.504C428.965 352.267 430.286 372.725 431.796 392.878ZM584.407 701.58C584.407 710.74 586.86 715.32 591.767 715.32H682.919C687.826 715.32 690.279 710.74 690.279 701.58V535.778H694.242C734.629 535.778 765.39 518.068 786.527 482.649C808.041 446.618 818.798 394.71 818.798 326.923C818.798 255.473 808.607 202.343 788.225 167.534C767.844 132.725 736.138 115.32 693.11 115.32H591.767C586.86 115.32 584.407 119.9 584.407 129.061V701.58ZM693.11 385.549H690.279V265.549H692.544C700.093 265.549 705.377 270.435 708.397 280.206C711.416 289.977 712.926 305.549 712.926 326.923C712.926 345.855 711.227 360.511 707.83 370.893C704.433 380.664 699.527 385.549 693.11 385.549ZM851.074 715.32C846.167 715.32 843.714 710.74 843.714 701.58V129.061C843.714 119.9 846.167 115.32 851.074 115.32H952.417C995.445 115.32 1027.15 132.725 1047.53 167.534C1067.91 202.343 1078.1 255.473 1078.1 326.923C1078.1 394.71 1067.35 446.618 1045.83 482.649C1024.7 518.068 993.935 535.778 953.549 535.778H949.586V701.58C949.586 710.74 947.133 715.32 942.226 715.32H851.074ZM949.586 385.549H952.417C958.833 385.549 963.74 380.664 967.137 370.893C970.534 360.511 972.232 345.855 972.232 326.923C972.232 305.549 970.723 289.977 967.703 280.206C964.683 270.435 959.399 265.549 951.85 265.549H949.586V385.549ZM1166.66 701.58C1166.66 710.74 1169.11 715.32 1174.02 715.32H1265.17C1270.07 715.32 1272.53 710.74 1272.53 701.58V507.381L1359.15 132.725C1360.28 127.839 1360.28 123.87 1359.15 120.816C1358.4 117.152 1356.51 115.32 1353.49 115.32H1253.28C1248.75 115.32 1246.3 118.679 1245.92 125.397L1231.2 251.809L1225.54 304.939C1224.03 322.649 1222.33 340.664 1220.44 358.984H1219.31C1217.8 340.664 1216.1 322.649 1214.21 304.939C1212.7 286.618 1210.63 268.603 1207.99 250.893L1193.83 125.397C1193.45 118.679 1190.81 115.32 1185.91 115.32H1085.13C1082.49 115.32 1080.6 117.152 1079.47 120.816C1078.33 123.87 1078.33 127.839 1079.47 132.725L1166.66 507.381V701.58Z" fill="black"/>
</svg>
